<?xml version="1.0" encoding="UTF-8"?>
<svg width="260px" height="80px" viewBox="0 0 260 80" version="1.1" xmlns="http://www.w3.org/2000/svg" xmlns:xlink="http://www.w3.org/1999/xlink">
    <!-- Generator: Sketch 63.1 (92452) - https://sketch.com -->
    <title>Group 6</title>
    <desc>Created with Sketch.</desc>
    <g id="Page-1" stroke="none" stroke-width="1" fill="none" fill-rule="evenodd">
        <g id="LiquidShapeD-Copy-34" transform="translate(-366.000000, -146.000000)">
            <g id="Group-8" transform="translate(223.000000, 146.000000)">
                <g id="Group-6" transform="translate(143.000000, 0.000000)">
                    <g id="Group-5">
                        <rect id="Rectangle" stroke="#1CA4E6" x="0.5" y="0.5" width="79" height="79"></rect>
                        <text id="Lq" font-family="Roboto-Regular, Roboto" font-size="15" font-weight="normal" letter-spacing="0.605769375" fill="#1CA4E6">
                            <tspan x="5" y="17">Lq</tspan>
                        </text>
                        <g id="Group" transform="translate(26.000000, 32.000000)">
                            <path d="M7.31428571,35 C6.34010719,35 5.50764213,34.2980997 5.3430412,33.3379276 L5.3430412,33.3379276 L0.0287554904,2.33792763 C0.00961974112,2.22630243 -1.82076576e-14,2.11325353 -1.82076576e-14,2 C-1.83186799e-14,0.8954305 0.8954305,-2.41183085e-16 2,0 L2,0 L26.2559358,0 C27.3605053,-2.41183085e-16 28.2559358,0.8954305 28.2559358,2 C28.2559358,2.11325353 28.2463161,2.22630243 28.2271803,2.33792763 L22.9128946,33.3379276 C22.7482937,34.2980997 21.9158286,35 20.9416501,35 Z" id="Combined-Shape" fill="#1CA4E6"></path>
                            <path d="M8.01863058,10 L20.3189244,10 C21.4234939,10 22.3189244,10.8954305 22.3189244,12 C22.3189244,12.1070654 22.3103271,12.213958 22.2932156,12.3196471 L19.7027394,28.3196471 C19.5459226,29.288221 18.7096346,30 17.7284482,30 L10.6091068,30 C9.6279203,30 8.79163231,29.288221 8.63481558,28.3196471 L6.04433939,12.3196471 C5.86780315,11.2292762 6.60861252,10.2022451 7.69898343,10.0257088 C7.8046726,10.0085972 7.91156516,10 8.01863058,10 Z" id="Path-2" fill="#FFFFFF"></path>
                        </g>
                    </g>
                    <g id="Group-4" transform="translate(90.000000, 0.000000)">
                        <rect id="Rectangle-Copy" stroke="#2E80FD" x="0.5" y="0.5" width="79" height="79"></rect>
                        <text id="Sh" font-family="Roboto-Regular, Roboto" font-size="15" font-weight="normal" letter-spacing="0.605769375" fill="#2E80FD">
                            <tspan x="5" y="17">Sh</tspan>
                        </text>
                        <g id="Group-Copy" transform="translate(28.000000, 16.000000)">
                            <path d="M2.4,50.8 C1.0745166,50.8 -3.95810523e-15,49.7254834 0,48.4 L0,48.4 L0,27.3414634 C0,20.9804878 2.86666667,16.0666667 8.6,12.6 L8.6,12.6 L8.6,4.8 L8.4,4.8 C7.7372583,4.8 7.2,4.2627417 7.2,3.6 L7.2,3.6 L7.2,2.4 C7.2,1.0745166 8.2745166,6.8757656e-16 9.6,0 L9.6,0 L14,0 C15.3254834,1.13166577e-15 16.4,1.0745166 16.4,2.4 L16.4,3.6 C16.4,4.2627417 15.8627417,4.8 15.2,4.8 L15,4.8 L15,12.6 C20.7333333,16.0666667 23.6,20.9804878 23.6,27.3414634 L23.6,48.4 L23.6,48.4 C23.6,49.7254834 22.5254834,50.8 21.2,50.8 Z" id="Combined-Shape" fill="#2E80FD"></path>
                            <path d="M6.4,25 L16.6,25 C17.9254834,25 19,26.0745166 19,27.4 L19,43.6 C19,44.9254834 17.9254834,46 16.6,46 L6.4,46 C5.0745166,46 4,44.9254834 4,43.6 L4,27.4 C4,26.0745166 5.0745166,25 6.4,25 Z" id="Path-2" fill="#FFFFFF"></path>
                        </g>
                    </g>
                    <g id="Group-3" transform="translate(180.000000, 0.000000)">
                        <rect id="Rectangle-Copy-2" stroke="#5F5CF2" x="0.5" y="0.5" width="79" height="79"></rect>
                        <text id="Ds" font-family="Roboto-Regular, Roboto" font-size="15" font-weight="normal" letter-spacing="0.605769375" fill="#5F5CF2">
                            <tspan x="5" y="17">Ds</tspan>
                        </text>
                        <g id="Group-2" transform="translate(11.000000, 29.000000)">
                            <path d="M29.2725801,0 L33.2725801,2 L31.2725801,5 L42.2725801,8 L47.2725801,20 C49.1572907,22 50.4329793,20.3333333 51.099646,15 C51.7663126,9.66666667 54.1572907,9.33333333 58.2725801,14 C54.4543002,16 53.1209669,18.6666667 54.2725801,22 C56,27 51,28 48.2725801,28 C48.09086,32.6666667 45.4241934,36 40.2725801,38 L40.2725801,38 L17.2725801,38 C12.490624,36.6666667 9.82395736,33.3333333 9.27258013,28 C8.61173745,27.008736 -2,22 1.27258013,15 C2.23592358,12.9394227 6.56925691,11.9394227 14.2725801,12 L14.2725801,12 L15.2725801,8 L27.2725801,5 L25.2725801,2 L29.2725801,0 Z M4.27258013,17 C4.09086004,20.3333333 6.09086004,22.3333333 10.2725801,23 L12.2725801,16 C6.99195861,15.6997618 4.32529194,16.0330951 4.27258013,17 Z" id="Combined-Shape" fill="#5F5CF2"></path>
                            <path d="M15.778666,19.3632618 L14.1794056,26.7265236 C13.476084,29.9647334 15.5310169,33.1599759 18.7692267,33.8632975 C19.1876255,33.9541715 19.6145494,34 20.0427031,34 L37.1126493,34 C40.054745,34 42.7002404,32.208239 43.7919537,29.4761905 L43.972936,29.0232763 C45.011131,26.425159 44.9317401,23.5138654 43.7534921,20.9761905 L42.713659,18.7366293 C42.2219204,17.6775374 41.1603317,17 39.9926492,17 L18.7103148,17 C17.2988278,17 16.0782486,17.9839338 15.778666,19.3632618 Z" id="Path-5" fill="#FFFFFF"></path>
                        </g>
                    </g>
                </g>
            </g>
        </g>
    </g>
</svg>