<?xml version="1.0" encoding="UTF-8"?>
<svg width="93px" height="36px" viewBox="0 0 93 36" version="1.1" xmlns="http://www.w3.org/2000/svg" xmlns:xlink="http://www.w3.org/1999/xlink">
    <!-- Generator: Sketch 63.1 (92452) - https://sketch.com -->
    <title>Group 3</title>
    <desc>Created with Sketch.</desc>
    <g id="Page-1" stroke="none" stroke-width="1" fill="none" fill-rule="evenodd">
        <g id="LiquidShapeD-Copy-35" transform="translate(-241.000000, -11.000000)">
            <g id="Group-3" transform="translate(241.000000, 11.000000)">
                <g id="Group" transform="translate(0.000000, 11.000000)">
                    <path d="M5.57511782,25 C4.89553912,25 4.31410531,24.511962 4.19630996,23.8426702 L4.19630996,23.8426702 L0.289109948,1.64267016 C0.275008705,1.56254946 0.267917832,1.48135212 0.267917832,1.39999998 C0.267917832,0.62680134 0.894719172,-8.00103196e-17 1.66791781,0 L1.66791781,0 L19.3320822,0 C20.1052808,-8.00103196e-17 20.7320822,0.62680134 20.7320822,1.39999998 C20.7320822,1.48135212 20.7249913,1.56254946 20.7108901,1.64267016 L16.80369,23.8426702 C16.6858947,24.511962 16.1044609,25 15.4248822,25 Z" id="Combined-Shape" fill="#1CA4E6"></path>
                    <path d="M6.62511561,6 L14.3748844,6 C15.148083,6 15.7748844,6.62680134 15.7748844,7.39999998 C15.7748844,7.4693586 15.7697301,7.53862133 15.7594643,7.60721601 L14.0832738,18.8072161 C13.9806764,19.4927529 13.3918655,20 12.6986939,20 L8.30130609,20 C7.60813447,20 7.01932356,19.4927529 6.91672621,18.8072161 L5.24053573,7.60721601 C5.12609347,6.84253366 5.65321722,6.12986235 6.41789957,6.01542009 C6.48649426,6.00515422 6.55575699,6 6.62511561,6 Z" id="Path-2" fill="#FFFFFF"></path>
                </g>
                <g id="Group-Copy" transform="translate(30.000000, 0.000000)">
                    <path d="M1.67999997,36 C0.752161607,36 1.13627428e-16,35.2478384 0,34.32 L0,34.32 L0,19 C0,14.7427822 2,11.4094488 6,9 L6,9 L6,3 L5.83999999,3 C5.3760808,3 5,2.6239192 5,2.16000001 L5,2.16000001 L5,1.5 C5,0.671572875 5.67157288,1.52179594e-16 6.5,0 L6.5,0 L10.5,0 C11.3284271,1.52179594e-16 12,0.671572875 12,1.5 L12,2.16000001 C12,2.6239192 11.6239192,3 11.16,3 L11,3 L11,9 C15,11.4094488 17,14.7427822 17,19 L17,34.32 L17,34.32 C17,35.2478384 16.2478384,36 15.32,36 Z" id="Combined-Shape" fill="#2E80FD"></path>
                    <path d="M5.67999997,17 L11.32,17 C12.2478384,17 13,17.7521616 13,18.68 L13,30.32 C13,31.2478384 12.2478384,32 11.32,32 L5.67999997,32 C4.75216161,32 4,31.2478384 4,30.32 L4,18.68 C4,17.7521616 4.75216161,17 5.67999997,17 Z" id="Path-2" fill="#FFFFFF"></path>
                </g>
                <g id="Group-2" transform="translate(53.000000, 10.000000)">
                    <path d="M20,0 L22,1 L21,3 L29,5 L32,13 C33.5512114,14.5614035 34.5512114,13.5614035 35,10 C35.4767351,5.98245614 37.1434017,5.64912281 40,9 C37.3495687,10.3859649 36.3495687,12.3859649 37,15 C38.422505,18.1842105 34.9517914,18.8947368 33,19 C32.9129088,22.245614 31.2462421,24.5789474 28,26 L28,26 L12,26 C8.3740719,25.0526316 6.3740719,22.7192982 6,19 C5.52828696,18.1904177 -0.558618986,14.675857 1,10 C1.66666667,8 4.66666667,7 10,7 L10,7 L11,5 L19,3 L18,1 L20,0 Z M9,10 C5,10 3,10.3333333 3,11 C3,13.1785576 4.33333333,14.8452242 7,16 L9,10 Z" id="Combined-Shape" fill="#5F5CF2"></path>
                    <path d="M11.1173298,12.6780173 L10.0346596,17.9560347 C9.56855034,20.2283171 11.032743,22.4482221 13.3050254,22.9143313 C13.582735,22.9712974 13.8654987,23 14.1489908,23 L25.1766286,23 C27.2304592,23 29.0696899,21.7282667 29.7948718,19.8067227 L29.9178871,19.4807641 C30.6115865,17.6426404 30.5582279,15.6060007 29.7692308,13.8067227 L29.089514,12.2566542 C28.7547133,11.4931539 27.999977,11 27.1662959,11 L13.1744954,11 C12.1773526,11 11.3176998,11.7012134 11.1173298,12.6780173 Z" id="Path-5" fill="#FFFFFF"></path>
                </g>
            </g>
        </g>
    </g>
</svg>