<?xml version="1.0" encoding="UTF-8"?>
<svg width="46px" height="46px" viewBox="0 0 46 46" version="1.1" xmlns="http://www.w3.org/2000/svg" xmlns:xlink="http://www.w3.org/1999/xlink">
    <!-- Generator: Sketch 63.1 (92452) - https://sketch.com -->
    <title>Sq1_Menu</title>
    <desc>Created with Sketch.</desc>
    <g id="Page-1" stroke="none" stroke-width="1" fill="none" fill-rule="evenodd">
        <g id="LiquidShapeD-Copy-35" transform="translate(-404.000000, -6.000000)">
            <g id="Group-10" transform="translate(404.000000, 6.000000)">
                <g id="Sq1_Menu">
                    <rect id="Rectangle" stroke="#1CA4E6" x="0.5" y="0.5" width="45" height="45"></rect>
                    <g id="Group" transform="translate(13.000000, 16.000000)">
                        <path d="M5.57511782,25 C4.89553912,25 4.31410531,24.511962 4.19630996,23.8426702 L4.19630996,23.8426702 L0.289109948,1.64267016 C0.275008705,1.56254946 0.267917832,1.48135212 0.267917832,1.39999998 C0.267917832,0.62680134 0.894719172,-8.00103196e-17 1.66791781,0 L1.66791781,0 L19.3320822,0 C20.1052808,-8.00103196e-17 20.7320822,0.62680134 20.7320822,1.39999998 C20.7320822,1.48135212 20.7249913,1.56254946 20.7108901,1.64267016 L16.80369,23.8426702 C16.6858947,24.511962 16.1044609,25 15.4248822,25 Z" id="Combined-Shape" fill="#1CA4E6"></path>
                        <path d="M6.62511561,6 L14.3748844,6 C15.148083,6 15.7748844,6.62680134 15.7748844,7.39999998 C15.7748844,7.4693586 15.7697301,7.53862133 15.7594643,7.60721601 L14.0832738,18.8072161 C13.9806764,19.4927529 13.3918655,20 12.6986939,20 L8.30130609,20 C7.60813447,20 7.01932356,19.4927529 6.91672621,18.8072161 L5.24053573,7.60721601 C5.12609347,6.84253366 5.65321722,6.12986235 6.41789957,6.01542009 C6.48649426,6.00515422 6.55575699,6 6.62511561,6 Z" id="Path-2" fill="#FFFFFF"></path>
                    </g>
                </g>
            </g>
        </g>
    </g>
</svg>