<?xml version="1.0" encoding="UTF-8"?>
<svg width="46px" height="46px" viewBox="0 0 46 46" version="1.1" xmlns="http://www.w3.org/2000/svg" xmlns:xlink="http://www.w3.org/1999/xlink">
    <!-- Generator: Sketch 63.1 (92452) - https://sketch.com -->
    <title>Sq3_Menu</title>
    <desc>Created with Sketch.</desc>
    <g id="Page-1" stroke="none" stroke-width="1" fill="none" fill-rule="evenodd">
        <g id="LiquidShapeD-Copy-35" transform="translate(-508.000000, -6.000000)">
            <g id="Group-10" transform="translate(404.000000, 6.000000)">
                <g id="Sq3_Menu" transform="translate(104.000000, 0.000000)">
                    <rect id="Rectangle-Copy-2" stroke="#5F5CF2" x="0.5" y="0.5" width="45" height="45"></rect>
                    <g id="Group-2" transform="translate(3.000000, 15.000000)">
                        <path d="M20,0 L22,1 L21,3 L29,5 L32,13 C33.5512114,14.5614035 34.5512114,13.5614035 35,10 C35.4767351,5.98245614 37.1434017,5.64912281 40,9 C37.3495687,10.3859649 36.3495687,12.3859649 37,15 C38.422505,18.1842105 34.9517914,18.8947368 33,19 C32.9129088,22.245614 31.2462421,24.5789474 28,26 L28,26 L12,26 C8.3740719,25.0526316 6.3740719,22.7192982 6,19 C5.52828696,18.1904177 -0.558618986,14.675857 1,10 C1.66666667,8 4.66666667,7 10,7 L10,7 L11,5 L19,3 L18,1 L20,0 Z M9,10 C5,10 3,10.3333333 3,11 C3,13.1785576 4.33333333,14.8452242 7,16 L9,10 Z" id="Combined-Shape" fill="#5F5CF2"></path>
                        <path d="M11.1173298,12.6780173 L10.0346596,17.9560347 C9.56855034,20.2283171 11.032743,22.4482221 13.3050254,22.9143313 C13.582735,22.9712974 13.8654987,23 14.1489908,23 L25.1766286,23 C27.2304592,23 29.0696899,21.7282667 29.7948718,19.8067227 L29.9178871,19.4807641 C30.6115865,17.6426404 30.5582279,15.6060007 29.7692308,13.8067227 L29.089514,12.2566542 C28.7547133,11.4931539 27.999977,11 27.1662959,11 L13.1744954,11 C12.1773526,11 11.3176998,11.7012134 11.1173298,12.6780173 Z" id="Path-5" fill="#FFFFFF"></path>
                    </g>
                </g>
            </g>
        </g>
    </g>
</svg>