<?xml version="1.0" encoding="UTF-8"?>
<svg width="80px" height="80px" viewBox="0 0 80 80" version="1.1" xmlns="http://www.w3.org/2000/svg" xmlns:xlink="http://www.w3.org/1999/xlink">
    <!-- Generator: Sketch 63.1 (92452) - https://sketch.com -->
    <title>Sq2</title>
    <desc>Created with Sketch.</desc>
    <g id="Page-1" stroke="none" stroke-width="1" fill="none" fill-rule="evenodd">
        <g id="LiquidShapeD-Copy-34" transform="translate(-456.000000, -146.000000)">
            <g id="Group-8" transform="translate(223.000000, 146.000000)">
                <g id="Group-6" transform="translate(143.000000, 0.000000)">
                    <g id="Sq2" transform="translate(90.000000, 0.000000)">
                        <rect id="Rectangle-Copy" stroke="#2E80FD" x="0.5" y="0.5" width="79" height="79"></rect>
                        <text id="Sh" font-family="Roboto-Regular, Roboto" font-size="15" font-weight="normal" letter-spacing="0.605769375" fill="#2E80FD">
                            <tspan x="5" y="17">Sh</tspan>
                        </text>
                        <g id="Group-Copy" transform="translate(28.000000, 16.000000)">
                            <path d="M2.4,50.8 C1.0745166,50.8 -3.95810523e-15,49.7254834 0,48.4 L0,48.4 L0,27.3414634 C0,20.9804878 2.86666667,16.0666667 8.6,12.6 L8.6,12.6 L8.6,4.8 L8.4,4.8 C7.7372583,4.8 7.2,4.2627417 7.2,3.6 L7.2,3.6 L7.2,2.4 C7.2,1.0745166 8.2745166,6.8757656e-16 9.6,0 L9.6,0 L14,0 C15.3254834,1.13166577e-15 16.4,1.0745166 16.4,2.4 L16.4,3.6 C16.4,4.2627417 15.8627417,4.8 15.2,4.8 L15,4.8 L15,12.6 C20.7333333,16.0666667 23.6,20.9804878 23.6,27.3414634 L23.6,48.4 L23.6,48.4 C23.6,49.7254834 22.5254834,50.8 21.2,50.8 Z" id="Combined-Shape" fill="#2E80FD"></path>
                            <path d="M6.4,25 L16.6,25 C17.9254834,25 19,26.0745166 19,27.4 L19,43.6 C19,44.9254834 17.9254834,46 16.6,46 L6.4,46 C5.0745166,46 4,44.9254834 4,43.6 L4,27.4 C4,26.0745166 5.0745166,25 6.4,25 Z" id="Path-2" fill="#FFFFFF"></path>
                        </g>
                    </g>
                </g>
            </g>
        </g>
    </g>
</svg>