<?xml version="1.0" encoding="UTF-8"?>
<svg width="80px" height="80px" viewBox="0 0 80 80" version="1.1" xmlns="http://www.w3.org/2000/svg" xmlns:xlink="http://www.w3.org/1999/xlink">
    <!-- Generator: Sketch 63.1 (92452) - https://sketch.com -->
    <title>Sq3</title>
    <desc>Created with Sketch.</desc>
    <g id="Page-1" stroke="none" stroke-width="1" fill="none" fill-rule="evenodd">
        <g id="LiquidShapeD-Copy-35" transform="translate(-546.000000, -146.000000)">
            <g id="Group-8" transform="translate(223.000000, 146.000000)">
                <g id="Group-6" transform="translate(143.000000, 0.000000)">
                    <g id="Sq3" transform="translate(180.000000, 0.000000)">
                        <rect id="Rectangle-Copy-2" stroke="#5F5CF2" x="0.5" y="0.5" width="79" height="79"></rect>
                        <text id="Ds" font-family="Roboto-Regular, Roboto" font-size="15" font-weight="normal" letter-spacing="0.605769375" fill="#5F5CF2">
                            <tspan x="5" y="17">Ds</tspan>
                        </text>
                        <g id="Group-2" transform="translate(11.000000, 29.000000)" fill="#5F5CF2">
                            <path d="M29.2725801,0 L33.2725801,2 L31.2725801,5 L42.2725801,8 L47.2725801,20 C49.1572907,22 50.4329793,20.3333333 51.099646,15 C51.7663126,9.66666667 54.1572907,9.33333333 58.2725801,14 C54.4543002,16 53.1209669,18.6666667 54.2725801,22 C56,27 51,28 48.2725801,28 C48.09086,32.6666667 45.4241934,36 40.2725801,38 L40.2725801,38 L17.2725801,38 C12.490624,36.6666667 9.82395736,33.3333333 9.27258013,28 C8.61173745,27.008736 -2,22 1.27258013,15 C2.23592358,12.9394227 6.56925691,11.9394227 14.2725801,12 L14.2725801,12 L15.2725801,8 L27.2725801,5 L25.2725801,2 L29.2725801,0 Z M4.27258013,17 C4.09086004,20.3333333 6.09086004,22.3333333 10.2725801,23 L12.2725801,16 C6.99195861,15.6997618 4.32529194,16.0330951 4.27258013,17 Z" id="Combined-Shape"></path>
                        </g>
                    </g>
                </g>
            </g>
        </g>
    </g>
</svg>